<?xml version="1.0" encoding="utf-8"?>
<svg xmlns="http://www.w3.org/2000/svg"
	xmlns:xlink="http://www.w3.org/1999/xlink"
	width="18px" height="9px" viewBox="0 0 18 9">
<path fillRule="evenodd" d="M 3.33 5.14C 3.33 5.14 3.33 3.86 3.33 3.86 3.33 3.86 18 3.86 18 3.86 18 3.86 18 5.14 18 5.14 18 5.14 3.33 5.14 3.33 5.14ZM 0-0C 0-0 14.67-0 14.67-0 14.67-0 14.67 1.29 14.67 1.29 14.67 1.29 0 1.29 0 1.29 0 1.29 0-0 0-0ZM 14.67 9C 14.67 9 0 9 0 9 0 9 0 7.71 0 7.71 0 7.71 14.67 7.71 14.67 7.71 14.67 7.71 14.67 9 14.67 9Z" fill="rgb(255,255,255)"/></svg>